<svg width="68" height="35" viewBox="0 0 68 35" fill="none" xmlns="http://www.w3.org/2000/svg">
<path d="M8.088 29.288C6.968 29.288 5.916 29.084 4.932 28.676C3.948 28.268 3.1 27.688 2.388 26.936C1.676 26.184 1.144 25.296 0.792 24.272L3.84 22.904C4.288 23.88 4.908 24.648 5.7 25.208C6.492 25.768 7.368 26.048 8.328 26.048C8.84 26.048 9.28 25.968 9.648 25.808C10.016 25.648 10.304 25.428 10.512 25.148C10.72 24.868 10.824 24.536 10.824 24.152C10.824 23.736 10.696 23.38 10.44 23.084C10.184 22.788 9.784 22.552 9.24 22.376L5.736 21.224C4.312 20.76 3.24 20.1 2.52 19.244C1.8 18.388 1.44 17.36 1.44 16.16C1.44 15.104 1.7 14.176 2.22 13.376C2.74 12.576 3.468 11.952 4.404 11.504C5.34 11.056 6.416 10.832 7.632 10.832C8.704 10.832 9.696 11.016 10.608 11.384C11.52 11.752 12.308 12.272 12.972 12.944C13.636 13.616 14.136 14.424 14.472 15.368L11.448 16.736C11.112 15.904 10.608 15.252 9.936 14.78C9.264 14.308 8.496 14.072 7.632 14.072C7.136 14.072 6.696 14.152 6.312 14.312C5.928 14.472 5.632 14.7 5.424 14.996C5.216 15.292 5.112 15.632 5.112 16.016C5.112 16.432 5.248 16.796 5.52 17.108C5.792 17.42 6.2 17.664 6.744 17.84L10.176 18.944C11.616 19.408 12.692 20.056 13.404 20.888C14.116 21.72 14.472 22.736 14.472 23.936C14.472 24.976 14.2 25.9 13.656 26.708C13.112 27.516 12.364 28.148 11.412 28.604C10.46 29.06 9.352 29.288 8.088 29.288Z" fill="#E8521A"/>
<path d="M21.962 29.144C20.378 29.144 19.15 28.716 18.278 27.86C17.406 27.004 16.97 25.808 16.97 24.272V19.016H14.762V15.896H14.882C15.554 15.896 16.07 15.728 16.43 15.392C16.79 15.056 16.97 14.552 16.97 13.88V12.92H20.57V15.896H23.642V19.016H20.57V24.032C20.57 24.48 20.65 24.852 20.81 25.148C20.97 25.444 21.218 25.664 21.554 25.808C21.89 25.952 22.306 26.024 22.802 26.024C22.914 26.024 23.042 26.016 23.186 26C23.33 25.984 23.482 25.968 23.642 25.952V29C23.402 29.032 23.13 29.064 22.826 29.096C22.522 29.128 22.234 29.144 21.962 29.144Z" fill="#E8521A"/>
<path d="M31.064 28.288C29.768 28.288 28.588 27.992 27.524 27.4C26.46 26.808 25.612 25.996 24.98 24.964C24.348 23.932 24.032 22.76 24.032 21.448C24.032 20.12 24.348 18.944 24.98 17.92C25.612 16.896 26.46 16.088 27.524 15.496C28.588 14.904 29.768 14.608 31.064 14.608C32.36 14.608 33.536 14.904 34.592 15.496C35.648 16.088 36.492 16.896 37.124 17.92C37.756 18.944 38.072 20.12 38.072 21.448C38.072 22.76 37.756 23.932 37.124 24.964C36.492 25.996 35.648 26.808 34.592 27.4C33.536 27.992 32.36 28.288 31.064 28.288ZM31.064 25.048C31.72 25.048 32.292 24.896 32.78 24.592C33.268 24.288 33.652 23.864 33.932 23.32C34.212 22.776 34.352 22.152 34.352 21.448C34.352 20.744 34.212 20.124 33.932 19.588C33.652 19.052 33.268 18.628 32.78 18.316C32.292 18.004 31.72 17.848 31.064 17.848C30.408 17.848 29.832 18.004 29.336 18.316C28.84 18.628 28.452 19.052 28.172 19.588C27.892 20.124 27.752 20.744 27.752 21.448C27.752 22.152 27.892 22.776 28.172 23.32C28.452 23.864 28.84 24.288 29.336 24.592C29.832 24.896 30.408 25.048 31.064 25.048Z" fill="#E8521A"/>
<path d="M45.504 27.288C44.208 27.288 43.028 26.992 41.964 26.4C40.9 25.808 40.052 24.996 39.42 23.964C38.788 22.932 38.472 21.76 38.472 20.448C38.472 19.12 38.788 17.944 39.42 16.92C40.052 15.896 40.9 15.088 41.964 14.496C43.028 13.904 44.208 13.608 45.504 13.608C46.8 13.608 47.976 13.904 49.032 14.496C50.088 15.088 50.932 15.896 51.564 16.92C52.196 17.944 52.512 19.12 52.512 20.448C52.512 21.76 52.196 22.932 51.564 23.964C50.932 24.996 50.088 25.808 49.032 26.4C47.976 26.992 46.8 27.288 45.504 27.288ZM45.504 24.048C46.16 24.048 46.732 23.896 47.22 23.592C47.708 23.288 48.092 22.864 48.372 22.32C48.652 21.776 48.792 21.152 48.792 20.448C48.792 19.744 48.652 19.124 48.372 18.588C48.092 18.052 47.708 17.628 47.22 17.316C46.732 17.004 46.16 16.848 45.504 16.848C44.848 16.848 44.272 17.004 43.776 17.316C43.28 17.628 42.892 18.052 42.612 18.588C42.332 19.124 42.192 19.744 42.192 20.448C42.192 21.152 42.332 21.776 42.612 22.32C42.892 22.864 43.28 23.288 43.776 23.592C44.272 23.896 44.848 24.048 45.504 24.048Z" fill="#E8521A"/>
<path d="M53.44 30.8V12.896H56.8V15.392L56.488 14.672C56.92 14.016 57.508 13.508 58.252 13.148C58.996 12.788 59.848 12.608 60.808 12.608C62.056 12.608 63.184 12.912 64.192 13.52C65.2 14.128 66 14.948 66.592 15.98C67.184 17.012 67.48 18.168 67.48 19.448C67.48 20.712 67.188 21.864 66.604 22.904C66.02 23.944 65.224 24.768 64.216 25.376C63.208 25.984 62.064 26.288 60.784 26.288C59.888 26.288 59.06 26.124 58.3 25.796C57.54 25.468 56.928 24.984 56.464 24.344L57.04 23.6V30.8H53.44ZM60.352 23.048C61.024 23.048 61.616 22.896 62.128 22.592C62.64 22.288 63.04 21.864 63.328 21.32C63.616 20.776 63.76 20.152 63.76 19.448C63.76 18.744 63.616 18.124 63.328 17.588C63.04 17.052 62.64 16.628 62.128 16.316C61.616 16.004 61.024 15.848 60.352 15.848C59.712 15.848 59.14 16 58.636 16.304C58.132 16.608 57.74 17.032 57.46 17.576C57.18 18.12 57.04 18.744 57.04 19.448C57.04 20.152 57.18 20.776 57.46 21.32C57.74 21.864 58.132 22.288 58.636 22.592C59.14 22.896 59.712 23.048 60.352 23.048Z" fill="#E8521A"/>
</svg>
